<svg width="545" height="404" viewBox="0 0 545 404" fill="none" xmlns="http://www.w3.org/2000/svg">
<path d="M295.44 340.18C287.98 340.18 288.18 346.9 281.78 346.9C275.39 346.9 273.66 342.17 273.66 335.64L273.67 315.32C273.67 311.79 270.81 308.93 267.28 308.93L248.35 308.86C241.82 308.86 237.09 307.13 237.09 300.74C237.08 294.35 243.81 294.55 243.81 287.09C243.81 280.1 239.68 275.71 230.35 275.71C221.03 275.71 216.9 280.11 216.91 287.1C216.91 294.56 223.64 294.35 223.64 300.75C223.64 307.14 218.92 308.88 212.39 308.88L186.33 308.89C182.8 308.89 179.94 311.75 179.94 315.28L179.9 396.23C179.9 399.76 182.76 402.62 186.29 402.63L267.24 402.67C270.77 402.67 273.63 399.81 273.63 396.28L273.64 371.6C273.64 365.08 275.37 360.35 281.77 360.35C288.16 360.35 287.96 367.08 295.42 367.08C302.41 367.08 306.81 362.95 306.81 353.63C306.82 344.31 302.43 340.18 295.44 340.18Z" fill="white" stroke="#2647A3" stroke-linecap="round" stroke-linejoin="round"/>
<path d="M367.32 396.27L367.36 315.32C367.36 311.79 364.5 308.93 360.97 308.93L339.57 308.92C333.05 308.92 328.32 307.18 328.32 300.79C328.32 294.4 335.05 294.6 335.05 287.14C335.05 280.15 330.92 275.75 321.6 275.75C312.28 275.75 308.15 280.14 308.14 287.13C308.14 294.59 314.86 294.39 314.86 300.78C314.86 307.17 310.13 308.9 303.6 308.9L280 308.89C276.47 308.88 273.61 311.75 273.61 315.28L273.6 335.67C273.6 342.2 275.33 346.92 281.72 346.92C288.11 346.93 287.92 340.2 295.37 340.2C302.36 340.2 306.75 344.33 306.75 353.66C306.75 362.98 302.35 367.11 295.36 367.11C287.9 367.11 288.1 360.38 281.71 360.38C275.32 360.38 273.58 365.1 273.58 371.63L273.57 396.24C273.57 399.77 276.43 402.63 279.96 402.63L360.91 402.67C364.45 402.66 367.32 399.8 367.32 396.27Z" fill="url(#paint0_linear)"/>
<path d="M360.96 122.52L280.01 122.48C276.48 122.48 273.62 125.34 273.62 128.87L273.61 150.27C273.61 156.79 271.87 161.52 265.48 161.52C259.09 161.52 259.29 154.79 251.83 154.79C244.84 154.79 240.44 158.92 240.44 168.24C240.44 177.57 244.83 181.69 251.82 181.7C259.28 181.7 259.08 174.98 265.47 174.98C271.86 174.98 273.59 179.71 273.59 186.24L273.58 209.84C273.58 213.37 276.44 216.23 279.97 216.23L300.36 216.24C306.88 216.24 311.61 214.51 311.62 208.12C311.62 201.73 304.9 201.93 304.9 194.47C304.9 187.48 309.03 183.09 318.36 183.09C327.68 183.09 331.81 187.49 331.81 194.48C331.81 201.94 325.08 201.74 325.08 208.13C325.08 214.52 329.8 216.26 336.33 216.26L360.94 216.27C364.47 216.27 367.33 213.41 367.33 209.88L367.37 128.93C367.35 125.39 364.49 122.53 360.96 122.52Z" fill="url(#paint1_linear)"/>
<path d="M212.43 308.79C218.95 308.8 223.68 307.06 223.68 300.67C223.69 294.28 216.96 294.47 216.96 287.02C216.96 280.03 221.09 275.64 230.42 275.64C239.74 275.64 243.87 280.04 243.87 287.03C243.87 294.49 237.14 294.29 237.14 300.68C237.14 307.07 241.86 308.8 248.39 308.81H267.24C270.77 308.81 273.63 305.95 273.63 302.42L273.64 277.74C273.64 271.22 275.37 266.49 281.77 266.49C288.16 266.49 287.96 273.21 295.42 273.22C302.41 273.22 306.81 269.09 306.81 259.77C306.81 250.44 302.43 246.32 295.43 246.31C287.97 246.31 288.17 253.03 281.77 253.03C275.38 253.03 273.65 248.3 273.65 241.77L273.66 221.45C273.66 217.92 270.8 215.06 267.27 215.06L246.88 215.05C240.36 215.05 235.63 216.78 235.63 223.17C235.62 229.56 242.35 229.37 242.35 236.82C242.35 243.81 238.22 248.2 228.89 248.2C219.57 248.2 215.44 243.8 215.44 236.81C215.44 229.35 222.17 229.55 222.17 223.16C222.17 216.77 217.45 215.03 210.92 215.03L186.32 215.02C182.79 215.02 179.93 217.88 179.93 221.41L179.89 302.36C179.89 305.89 182.75 308.76 186.28 308.76L212.43 308.79Z" fill="url(#paint2_linear)"/>
<path d="M1 402.66H544.03" stroke="#2647A3" stroke-linecap="round" stroke-linejoin="round"/>
<path d="M371.65 252.88C373.3 251.39 374.83 248.8 375.2 248.31C375.55 247.83 375.81 247.34 377.59 246.47C378.63 245.97 380.19 244.98 381.3 244.22C381.04 244.29 376.92 245.49 375.91 245.81C374.86 246.14 372.92 247.19 370.68 247.6C368.44 248 367.53 246.6 368.07 246.4C368.94 246.09 370.99 245.25 372.66 244.28C373.79 243.64 374.28 243.19 375.65 242.68C376.19 242.48 377.22 242.09 378.27 241.69C378.27 241.69 376.51 241.46 375.47 241.48C374.94 241.49 373.67 242 371.62 242.4C369.57 242.8 368.73 242.47 368.32 241.03C370.65 240.75 374.7 238.8 375.16 238.8C375.62 238.8 377.84 238.45 379.35 238.3C380.86 238.14 382.64 237.86 382.96 238.05C383.19 238.19 387.36 240.92 394.48 244.82C406.04 244.82 427.48 235.4 433.58 234.48L449.76 207.62L465.12 220.42C457.12 230.28 442.31 246.91 441.04 247.67C439.75 248.43 402.4 252.4 395.99 252.9C392.62 254.43 390.17 254.03 388.42 252.99C386.66 251.94 383.62 249.77 383.62 249.77C383.62 249.77 381.05 251.04 380.69 251.58C380.32 252.12 380.3 252.73 379.69 254.29C379.08 255.84 377.18 256.13 377.18 256.13C377.18 256.13 377.57 253.73 377.71 253.28C377.83 252.83 377.99 251.59 378.63 250.78C378.97 250.34 379.85 249.08 380.58 248.01C380.46 248.06 379.43 248.44 378.33 249.21C377.56 249.76 377.46 250.5 376.28 251.92C375.09 253.34 373.11 253.6 371.65 252.88Z" fill="#D4E7F7"/>
<path d="M381.71 240.38C381.71 240.38 379.96 241.05 378.28 241.68C377.23 242.08 376.2 242.47 375.66 242.67C374.29 243.19 373.8 243.64 372.67 244.27C370.99 245.24 368.95 246.08 368.08 246.39C367.54 246.59 368.45 247.99 370.69 247.59C372.93 247.19 374.87 246.13 375.92 245.8C376.93 245.48 381.05 244.28 381.31 244.21" stroke="#2647A3" stroke-linecap="round" stroke-linejoin="round"/>
<path d="M382.7 243.26C382.7 243.26 382.12 243.66 381.32 244.21H381.31C380.19 244.97 378.64 245.96 377.6 246.46C375.82 247.33 375.56 247.82 375.21 248.3C374.84 248.79 373.31 251.38 371.66 252.87C373.12 253.59 375.1 253.34 376.28 251.9C377.46 250.48 377.55 249.74 378.33 249.19C379.43 248.42 380.46 248.04 380.58 247.99C380.59 247.99 380.59 247.99 380.59 247.99" stroke="#2647A3" stroke-linecap="round" stroke-linejoin="round"/>
<path d="M381.71 246.35C381.71 246.35 381.19 247.11 380.57 248C379.85 249.07 378.97 250.33 378.62 250.77C377.98 251.58 377.82 252.81 377.7 253.27C377.57 253.72 377.17 256.12 377.17 256.12C377.17 256.12 379.07 255.84 379.68 254.28C380.29 252.72 380.32 252.11 380.68 251.57C381.04 251.03 383.61 249.76 383.61 249.76C383.61 249.76 386.65 251.93 388.41 252.98C390.16 254.02 392.61 254.42 395.98 252.89C402.39 252.39 439.75 248.42 441.03 247.66C442.3 246.9 457.11 230.27 465.11 220.41L449.75 207.61L433.57 234.47C427.47 235.39 406.03 244.81 394.47 244.81C387.35 240.9 383.19 238.17 382.95 238.04C382.63 237.84 380.84 238.13 379.34 238.29C377.83 238.44 375.62 238.79 375.15 238.79C374.7 238.79 370.64 240.74 368.31 241.02C368.71 242.47 369.56 242.79 371.61 242.39C373.65 241.99 374.93 241.48 375.46 241.47C376.5 241.45 378.26 241.68 378.26 241.68" stroke="#2647A3" stroke-linecap="round" stroke-linejoin="round"/>
<path d="M464.57 197.05C464.57 197.05 456.73 197.24 451.91 200.11C445.19 208.2 436.44 224.41 436.44 224.41C436.44 224.41 445.37 233.6 453.02 237.88C453.02 237.88 464.04 228.18 471.19 220.63L464.57 197.05Z" fill="#E55151"/>
<path d="M462.71 228.33L471.08 220.51C471.14 220.45 471.24 220.45 471.3 220.52C471.36 220.58 471.36 220.68 471.3 220.74L463.41 229.04C463.22 229.24 462.9 229.25 462.7 229.06C462.5 228.87 462.49 228.56 462.67 228.35C462.69 228.35 462.7 228.34 462.71 228.33Z" fill="#2647A3"/>
<path d="M462.93 228.2L474.09 225.62C474.17 225.6 474.26 225.65 474.28 225.74C474.3 225.82 474.25 225.91 474.17 225.93L463.18 229.17C462.92 229.25 462.64 229.1 462.55 228.84C462.47 228.58 462.62 228.3 462.88 228.21C462.91 228.21 462.93 228.21 462.93 228.2Z" fill="#2647A3"/>
<path d="M451.92 200.1C445.2 208.19 436.45 224.4 436.45 224.4C436.45 224.4 445.38 233.59 453.03 237.87C453.03 237.87 457.78 233.69 463.07 228.68" stroke="#2647A3" stroke-linecap="round" stroke-linejoin="round"/>
<path d="M464.58 197.24C464.58 197.24 463.77 197.28 462.55 197.43C461.94 197.49 461.24 197.61 460.48 197.73C459.73 197.85 458.93 198.05 458.14 198.21C457.75 198.32 457.36 198.43 456.97 198.54C456.59 198.66 456.2 198.74 455.85 198.87C455.15 199.14 454.48 199.38 453.93 199.61C452.88 200.16 452.17 200.53 452.17 200.53L452.1 200.57C451.86 200.7 451.55 200.61 451.43 200.36C451.3 200.12 451.39 199.81 451.64 199.69C451.65 199.69 451.65 199.68 451.66 199.68C451.66 199.68 452.43 199.32 453.58 198.78C454.17 198.56 454.88 198.35 455.62 198.1C455.99 197.98 456.39 197.91 456.79 197.81C457.19 197.72 457.59 197.63 458 197.53C458.82 197.4 459.63 197.24 460.4 197.16C461.17 197.08 461.89 196.99 462.51 196.95C463.75 196.85 464.57 196.85 464.57 196.85H464.58C464.68 196.85 464.77 196.93 464.77 197.04C464.76 197.15 464.68 197.23 464.58 197.24Z" fill="#2647A3"/>
<path d="M422.7 373.49L423.7 388.22L436.15 389.61L434.69 367.57L422.7 373.49Z" fill="white" stroke="#213D8C" stroke-linecap="round" stroke-linejoin="round"/>
<path d="M438.14 399.43H394.9V402.66H438.14V399.43Z" fill="#E1EDF7" stroke="#213D8C" stroke-linecap="round" stroke-linejoin="round"/>
<path d="M405.32 393.35C405.32 393.35 405.49 391.09 407.24 390.18C409 389.27 419.47 383.38 420.83 382.59C422.19 381.8 422.81 380.72 423.95 380.95C425.08 381.18 427.23 384.01 424.58 386.11C421.92 388.21 406.85 395.4 406.85 395.4L405.32 393.35Z" fill="#E55151"/>
<path d="M408.82 395.37C408.42 394.07 408.19 393.49 409.73 392.24C411.26 390.99 419.75 387.03 421.74 385.73C423.72 384.43 424.63 384.37 427.06 386.01C429.49 387.65 431.1 387.23 433.81 387.62C436.53 388.02 436.81 387.45 437.38 388.98C437.95 390.51 438.15 396.2 438.15 399.43H407.26L408.82 395.37Z" fill="white" stroke="#213D8C" stroke-linecap="round" stroke-linejoin="round"/>
<path d="M394.9 399.43C394.9 399.43 395.13 396.97 397.22 395.72C399.32 394.47 403.68 392.94 405.26 392.32C406.85 391.7 409.39 395.1 410.13 399.43H394.9V399.43Z" fill="white" stroke="#213D8C" stroke-linecap="round" stroke-linejoin="round"/>
<path d="M413.36 391.76C413.69 392.29 413.53 392.99 412.99 393.32C412.46 393.65 411.76 393.49 411.44 392.96L408.86 388.8C408.53 388.27 408.7 387.57 409.23 387.24C409.76 386.91 410.46 387.08 410.79 387.61L413.36 391.76Z" fill="white" stroke="#213D8C" stroke-linecap="round" stroke-linejoin="round"/>
<path d="M418.2 388.85C418.53 389.38 418.37 390.08 417.83 390.41C417.3 390.74 416.6 390.58 416.27 390.04L413.69 385.89C413.36 385.35 413.52 384.66 414.06 384.33C414.6 384 415.29 384.16 415.62 384.7L418.2 388.85Z" fill="white" stroke="#213D8C" stroke-linecap="round" stroke-linejoin="round"/>
<path d="M422.96 386.55C423.26 387.1 423.05 387.79 422.5 388.08C421.95 388.38 421.27 388.18 420.97 387.63L418.63 383.33C418.33 382.78 418.54 382.09 419.08 381.79C419.63 381.49 420.32 381.69 420.62 382.24L422.96 386.55Z" fill="white" stroke="#213D8C" stroke-linecap="round" stroke-linejoin="round"/>
<path d="M497.83 373.15L508.46 383.39L518.62 376.07L502.75 360.71L497.83 373.15Z" fill="white" stroke="#213D8C" stroke-linecap="round" stroke-linejoin="round"/>
<path d="M498.28 399.53C498.28 399.53 496.89 397.74 497.58 395.89C498.27 394.04 502.09 382.64 502.56 381.14C503.03 379.64 502.77 378.42 503.77 377.83C504.76 377.24 508.26 377.9 507.69 381.23C507.12 384.57 500.78 400.01 500.78 400.01L498.28 399.53Z" fill="#E55151"/>
<path d="M502.23 398.68C501.06 397.98 500.5 397.71 500.8 395.76C501.1 393.81 504.74 385.17 505.33 382.87C505.92 380.57 506.56 379.92 509.46 379.51C512.37 379.09 513.27 377.7 515.55 376.17C517.83 374.64 517.66 374.03 519.11 374.78C520.56 375.53 524.52 379.62 526.69 382.01L506.77 401.34L502.23 398.68Z" fill="white" stroke="#213D8C" stroke-linecap="round" stroke-linejoin="round"/>
<path d="M489.41 399.52C489.41 399.52 489.64 397.06 491.73 395.81C493.83 394.56 496.88 393.23 498.46 392.61C500.05 391.99 502.98 395.21 503.32 399.52H489.41Z" fill="white" stroke="#213D8C" stroke-linecap="round" stroke-linejoin="round"/>
<path d="M504.62 388.19C505.22 388.36 505.57 388.99 505.39 389.59C505.22 390.19 504.59 390.54 503.99 390.36L499.29 389.01C498.68 388.84 498.34 388.21 498.51 387.61C498.69 387.01 499.31 386.66 499.91 386.83L504.62 388.19Z" fill="white" stroke="#213D8C" stroke-linecap="round" stroke-linejoin="round"/>
<path d="M506.79 382.84C507.38 383.05 507.69 383.69 507.48 384.28C507.27 384.87 506.63 385.18 506.04 384.97L501.42 383.36C500.83 383.15 500.52 382.5 500.73 381.92C500.94 381.33 501.58 381.02 502.17 381.22L506.79 382.84Z" fill="white" stroke="#213D8C" stroke-linecap="round" stroke-linejoin="round"/>
<path d="M507.45 399.43L526.69 382.01L528.86 384.41L508.7 402.66H489.41V399.43H507.45Z" fill="#E1EDF7" stroke="#213D8C" stroke-linecap="round" stroke-linejoin="round"/>
<path d="M452.46 288.63C452.46 288.63 444.03 334.07 443.31 337.34C442.59 340.61 443.37 346.47 447.98 350.07C452.59 353.67 502.53 379.91 502.53 379.91C502.53 379.91 507.99 373.87 510.64 366.07C494.48 352.17 469.79 333.68 469.79 333.68C469.79 333.68 492.67 285.78 494.52 281.17C496.38 276.55 497.22 267.26 495.11 261.51L452.46 288.63Z" fill="#EDF7FF" stroke="#2647A3" stroke-linecap="round" stroke-linejoin="round"/>
<path d="M471.06 283.69L462.52 337.55L508.03 371.91" stroke="#2647A3" stroke-width="0.5" stroke-linecap="round" stroke-linejoin="round"/>
<path d="M500.54 378.7C500.54 378.7 506.73 370.57 508.29 364.03" stroke="#2647A3" stroke-width="0.5" stroke-linecap="round" stroke-linejoin="round"/>
<path d="M444.71 272.99C444.71 272.99 409.08 302.42 406.43 304.47C403.78 306.51 400.61 311.51 401.84 317.23C403.06 322.95 420.93 375.62 420.93 375.62C420.93 375.62 428.99 374.5 436.04 370.21C432.57 349.18 429.1 318.66 429.1 318.66C429.1 318.66 477.38 296.61 481.77 294.26C486.16 291.91 492.77 285.33 494.84 279.56L444.71 272.99Z" fill="white" stroke="#2647A3" stroke-linecap="round" stroke-linejoin="round"/>
<path d="M462.14 281.15L421.03 316.97L430.28 373.02" stroke="#2647A3" stroke-width="0.5" stroke-linecap="round" stroke-linejoin="round"/>
<path d="M420.19 373.42C420.19 373.42 430.15 371.16 435.55 367.15" stroke="#2647A3" stroke-width="0.5" stroke-linecap="round" stroke-linejoin="round"/>
<path d="M439.15 185.66C439.15 185.66 443.95 190.25 445.48 193.26C446.76 198.36 447.01 202.6 447.01 202.6L466.97 188.56L459.67 181.75L450.74 175.5L439.15 185.66Z" fill="white"/>
<path d="M450.73 175.5L439.14 185.66C439.14 185.66 443.94 190.25 445.47 193.26C445.93 195.1 446.26 196.82 446.49 198.28C452.5 191.78 455.13 183.13 456.07 179.24L450.73 175.5Z" fill="#D4E7F7"/>
<path d="M439.15 185.66C439.15 185.66 443.95 190.25 445.48 193.26C446.76 198.36 447.01 202.6 447.01 202.6L466.97 188.56L459.67 181.75L450.74 175.5L439.15 185.66Z" stroke="#2647A3" stroke-linecap="round" stroke-linejoin="round"/>
<path d="M454.62 176.99C454.59 177.02 454.58 177.03 454.56 177.04C454.07 177.4 453.54 177.69 452.98 177.9C449.05 187.86 436.14 190.36 434.28 190.36C432.42 190.36 432.52 188.83 432.22 186.89C431.9 184.94 430.58 185.1 429.97 184.44C429.36 183.77 429.18 181.99 429.18 181.99C427.51 182.16 426.62 181.38 426.62 181.38C426.62 181.38 426.62 180.99 426.62 180.25C426.62 179.52 425.99 178.98 425.37 179C424.76 179.02 423.25 178.48 422.8 177.6C422.33 176.73 422.91 176.3 424.64 173.4C426.35 170.48 424.26 170.37 424.82 160.61C425.39 150.85 432.87 144.83 440.7 143.81C450.07 142.58 457.46 145.85 460.91 156.33C464.2 166.27 459.05 174.21 454.62 176.99Z" fill="white"/>
<path d="M430.24 169.11C430.46 170.07 430.13 170.97 429.5 171.12C428.87 171.27 428.18 170.6 427.95 169.64C427.73 168.68 428.06 167.78 428.69 167.64C429.32 167.49 430.02 168.15 430.24 169.11Z" fill="#2647A3"/>
<path d="M452.97 177.9C449.04 187.86 436.13 190.36 434.27 190.36C432.41 190.36 432.51 188.83 432.21 186.89C431.89 184.94 430.57 185.1 429.96 184.44C429.35 183.77 429.17 181.99 429.17 181.99C427.5 182.16 426.61 181.38 426.61 181.38C426.61 181.38 426.61 180.99 426.61 180.25C426.61 179.52 425.98 178.98 425.36 179C424.75 179.02 423.24 178.48 422.79 177.6C422.32 176.73 422.9 176.3 424.63 173.4C426.34 170.48 424.25 170.37 424.81 160.61C425.38 150.85 432.86 144.83 440.69 143.81C450.06 142.58 457.45 145.85 460.9 156.33C464.18 166.28 459.04 174.21 454.61 176.99" stroke="#2647A3" stroke-linecap="round" stroke-linejoin="round"/>
<path d="M428.98 181.53C428.98 181.53 429.07 181.49 429.23 181.43C429.38 181.37 429.6 181.27 429.87 181.14C430.4 180.88 431.1 180.48 431.74 180C432.05 179.75 432.39 179.53 432.65 179.26C432.92 179 433.21 178.78 433.39 178.55C433.79 178.09 434.05 177.79 434.05 177.79L434.07 177.77C434.15 177.68 434.28 177.67 434.37 177.75C434.45 177.82 434.47 177.95 434.4 178.04C434.4 178.04 434.15 178.38 433.78 178.89C433.61 179.16 433.33 179.4 433.07 179.7C432.81 180 432.49 180.27 432.18 180.56C431.55 181.12 430.85 181.6 430.3 181.94C430.03 182.1 429.79 182.24 429.62 182.33C429.45 182.41 429.36 182.46 429.36 182.46C429.11 182.59 428.81 182.49 428.69 182.24C428.57 181.99 428.66 181.69 428.91 181.57C428.92 181.56 428.94 181.56 428.95 181.55L428.98 181.53Z" fill="#2647A3"/>
<path d="M449.51 172.75L448.54 167.62L445.43 166.52L444.6 162.48V162.47C443.84 162.08 443.24 161.62 442.82 161.17C442.82 161.17 443.18 163.15 443.08 163.57C438.93 160.83 439.19 155.99 439.22 155.6C438.34 157.63 436.82 159.88 434.24 161.48C434.11 160.56 434 159.34 433.92 158.26C432.01 162.24 424.77 165.82 424.77 165.82C424.77 165.82 420.99 161.73 422.15 155.58C419.53 156.57 417.93 154.85 417.93 154.85C417.93 154.85 422.64 149.95 430.89 143.16C438.2 137.13 449.37 137.7 455.13 142.13L455.26 142.12C455.2 141.24 455.33 140.16 455.9 138.92C457.38 142.64 462.43 144.53 460.95 149.94C465.04 151.42 466.11 156.47 466.06 159.53C466.01 162.44 464.94 165.64 466.12 167.7L466.01 168.15C465.42 168.02 464.1 167.59 462.96 166.46C463.28 174.83 458.31 174.95 459.68 181.76C455.06 181.48 452.99 177.9 452.99 177.9C453.55 177.69 454.08 177.4 454.57 177.04C454.6 177.03 454.61 177.02 454.63 176.99C458.04 174.41 459.57 168.42 456.91 165.51C454.57 162.94 450.86 165.89 451.16 168.84V171.93L449.51 172.75Z" fill="#3B4394"/>
<path d="M433.42 158.31C433.42 158.31 433.4 157.96 433.37 157.43C433.37 157.15 433.39 156.81 433.41 156.46C433.44 156.11 433.5 155.76 433.54 155.4C433.67 154.69 433.84 153.99 433.99 153.48C434.14 152.97 434.26 152.62 434.26 152.62C434.3 152.51 434.43 152.45 434.54 152.49C434.65 152.53 434.7 152.64 434.67 152.75C434.67 152.75 434.58 153.08 434.49 153.6C434.39 154.11 434.3 154.8 434.24 155.49C434.23 155.83 434.21 156.18 434.21 156.49C434.23 156.8 434.23 157.08 434.25 157.32C434.34 157.84 434.39 158.19 434.39 158.19C434.44 158.46 434.26 158.72 433.98 158.77C433.71 158.82 433.45 158.64 433.4 158.36C433.42 158.34 433.42 158.32 433.42 158.31Z" fill="#2647A3"/>
<path d="M439.22 155.59C438.34 157.62 436.82 159.87 434.24 161.47C434.11 160.55 434 159.33 433.92 158.25" stroke="#2647A3" stroke-linecap="round" stroke-linejoin="round"/>
<path d="M440.62 150.6C440.62 150.6 440.63 150.92 440.58 151.42C440.56 151.67 440.55 151.96 440.5 152.26C440.45 152.56 440.4 152.89 440.34 153.21C440.29 153.54 440.23 153.86 440.14 154.16C440.05 154.46 439.98 154.74 439.91 154.98C439.77 155.46 439.68 155.78 439.68 155.78C439.6 156.05 439.33 156.2 439.06 156.12C438.79 156.04 438.64 155.77 438.72 155.5C438.73 155.48 438.73 155.46 438.74 155.45L438.76 155.39C438.76 155.39 438.88 155.1 439.06 154.67C439.15 154.45 439.26 154.2 439.37 153.93C439.5 153.66 439.59 153.36 439.67 153.05C439.76 152.75 439.85 152.44 439.93 152.16C440.01 151.87 440.05 151.6 440.1 151.37C440.2 150.91 440.23 150.58 440.23 150.58C440.24 150.47 440.33 150.39 440.44 150.4C440.54 150.41 440.62 150.49 440.62 150.59V150.6V150.6Z" fill="#2647A3"/>
<path d="M422.14 155.57C419.52 156.56 417.92 154.84 417.92 154.84C417.92 154.84 422.63 149.94 430.88 143.15C438.19 137.12 449.36 137.69 455.12 142.12" stroke="#2647A3" stroke-linecap="round" stroke-linejoin="round"/>
<path d="M426.64 152.99C426.64 152.99 426.4 153.21 426.05 153.55C425.87 153.72 425.67 153.91 425.44 154.12C425.22 154.33 424.92 154.51 424.66 154.71C424.38 154.9 424.12 155.12 423.83 155.26C423.55 155.41 423.3 155.56 423.08 155.68C422.62 155.89 422.32 156.03 422.32 156.03C422.07 156.15 421.77 156.04 421.65 155.79C421.53 155.54 421.64 155.24 421.89 155.12C421.91 155.11 421.93 155.1 421.95 155.1L421.97 155.09C421.97 155.09 422.27 155 422.72 154.86C422.94 154.77 423.19 154.67 423.47 154.57C423.76 154.48 424.01 154.31 424.29 154.17C424.56 154.02 424.85 153.9 425.1 153.72C425.35 153.54 425.58 153.38 425.78 153.24C426.18 152.96 426.44 152.77 426.44 152.77C426.51 152.72 426.6 152.74 426.65 152.81C426.7 152.86 426.69 152.94 426.64 152.99Z" fill="#2647A3"/>
<path d="M433.92 158.25C432.01 162.23 424.77 165.81 424.77 165.81C424.77 165.81 420.99 161.72 422.15 155.57" stroke="#2647A3" stroke-linecap="round" stroke-linejoin="round"/>
<path d="M455.25 142.1C455.19 141.22 455.32 140.14 455.89 138.9C457.37 142.62 462.42 144.51 460.94 149.92C465.03 151.4 466.1 156.45 466.05 159.51C466 162.42 464.93 165.62 466.11 167.68C466.17 167.79 466.23 167.89 466.31 167.99" stroke="#2647A3" stroke-linecap="round" stroke-linejoin="round"/>
<path d="M456.5 147.16C456.5 147.16 456.3 146.88 456.06 146.45C455.82 146.01 455.52 145.41 455.31 144.77C455.21 144.45 455.08 144.13 455.03 143.82C454.97 143.51 454.87 143.22 454.86 142.96C454.8 142.44 454.76 142.1 454.76 142.1C454.73 141.83 454.93 141.58 455.2 141.55C455.48 141.52 455.72 141.72 455.75 141.99C455.75 142.01 455.75 142.03 455.75 142.05V142.11C455.75 142.11 455.75 142.42 455.75 142.88C455.73 143.11 455.79 143.38 455.82 143.67C455.84 143.96 455.92 144.27 455.98 144.58C456.12 145.2 456.32 145.8 456.51 146.24C456.69 146.68 456.84 146.96 456.84 146.96C456.89 147.06 456.86 147.18 456.76 147.23C456.67 147.28 456.56 147.25 456.5 147.16Z" fill="#2647A3"/>
<path d="M462.58 166.79C462.58 166.79 462.52 166.72 462.41 166.58C462.3 166.46 462.15 166.24 461.96 165.98C461.78 165.72 461.61 165.42 461.42 165.1C461.24 164.77 461.05 164.42 460.9 164.05C460.73 163.69 460.6 163.31 460.47 162.96C460.34 162.61 460.28 162.26 460.2 161.97C460.14 161.68 460.12 161.42 460.09 161.25C460.07 161.08 460.06 160.98 460.06 160.98C460.05 160.87 460.12 160.77 460.23 160.75C460.33 160.74 460.43 160.8 460.45 160.9L460.46 160.93C460.46 160.93 460.48 161.02 460.52 161.18C460.56 161.34 460.6 161.57 460.68 161.84C460.78 162.11 460.87 162.42 461.02 162.74C461.17 163.06 461.32 163.4 461.52 163.73C461.7 164.06 461.91 164.38 462.1 164.67C462.3 164.96 462.5 165.23 462.67 165.43C462.84 165.63 462.98 165.8 463.11 165.92C463.23 166.04 463.3 166.11 463.3 166.11L463.31 166.12C463.51 166.32 463.51 166.63 463.31 166.83C463.11 167.03 462.8 167.03 462.6 166.83C462.6 166.82 462.59 166.81 462.58 166.79Z" fill="#2647A3"/>
<path d="M466.3 168.21C466.3 168.21 466.19 168.2 465.99 168.15C465.4 168.02 464.08 167.59 462.94 166.46" stroke="#2647A3" stroke-linecap="round" stroke-linejoin="round"/>
<path d="M462.95 166.46C463.27 174.83 458.3 174.95 459.67 181.76C455.05 181.48 452.98 177.9 452.98 177.9C453.54 177.69 454.07 177.4 454.56 177.04C454.59 177.03 454.6 177.02 454.62 176.99C458.03 174.41 459.56 168.42 456.9 165.51C454.56 162.94 450.85 165.89 451.15 168.84V171.93L449.51 172.75L448.54 167.62L445.43 166.52L444.6 162.48" stroke="#2647A3" stroke-linecap="round" stroke-linejoin="round"/>
<path d="M444.82 162.02C444.82 162.02 445 162.11 445.31 162.28C445.61 162.43 446.03 162.61 446.58 162.8C447.67 163.17 449.22 163.44 450.77 163.3C451.15 163.25 451.55 163.22 451.92 163.13C452.3 163.06 452.66 162.96 453.01 162.84C453.37 162.74 453.68 162.58 453.99 162.46C454.29 162.32 454.57 162.16 454.84 162.02C455.09 161.86 455.32 161.72 455.52 161.59C455.73 161.47 455.88 161.32 456.02 161.22C456.29 161.01 456.45 160.89 456.45 160.89L456.46 160.88C456.51 160.84 456.57 160.85 456.61 160.9C456.65 160.94 456.64 161.01 456.6 161.05C456.6 161.05 456.45 161.18 456.18 161.42C456.04 161.53 455.9 161.69 455.69 161.83C455.49 161.98 455.27 162.14 455.02 162.32C454.76 162.48 454.48 162.66 454.17 162.82C453.85 162.96 453.53 163.16 453.17 163.28C452.82 163.43 452.44 163.56 452.05 163.66C451.66 163.78 451.26 163.84 450.85 163.92C449.22 164.17 447.54 163.98 446.34 163.66C445.74 163.5 445.23 163.31 444.9 163.17C444.58 163.03 444.4 162.94 444.4 162.94C444.15 162.83 444.03 162.53 444.15 162.28C444.26 162.03 444.56 161.91 444.81 162.03C444.8 162.01 444.81 162.02 444.82 162.02Z" fill="#2647A3"/>
<path d="M439.22 155.57C439.22 155.57 439.22 155.58 439.22 155.59C439.18 155.98 438.93 160.82 443.08 163.56C443.18 163.14 442.82 161.16 442.82 161.16C443.24 161.61 443.84 162.07 444.6 162.46V162.47" stroke="#2647A3" stroke-linecap="round" stroke-linejoin="round"/>
<path d="M446.65 159.19C446.65 159.19 446.76 159.27 446.92 159.35C447.07 159.45 447.34 159.56 447.66 159.69C447.82 159.76 448.01 159.79 448.2 159.85C448.39 159.9 448.59 159.98 448.82 159.99C449.04 160.02 449.27 160.05 449.49 160.08C449.72 160.12 449.96 160.08 450.2 160.09C450.44 160.09 450.68 160.08 450.91 160.08C451.14 160.04 451.37 160 451.59 159.96C451.81 159.92 452.03 159.88 452.23 159.84C452.44 159.8 452.61 159.71 452.79 159.66C453.48 159.41 453.94 159.24 453.94 159.24L453.96 159.23C454.03 159.2 454.11 159.24 454.14 159.31C454.17 159.38 454.13 159.46 454.07 159.49C454.07 159.49 453.61 159.7 452.93 160.02C452.75 160.09 452.58 160.2 452.37 160.26C452.16 160.32 451.94 160.38 451.71 160.44C451.48 160.5 451.24 160.57 451 160.64C450.75 160.67 450.49 160.7 450.24 160.73C449.98 160.75 449.73 160.81 449.47 160.78C449.21 160.77 448.96 160.76 448.72 160.74C448.47 160.74 448.24 160.68 448.02 160.64C447.8 160.59 447.59 160.57 447.4 160.51C447.02 160.39 446.71 160.3 446.48 160.18C446.24 160.08 446.15 160.02 446.15 160.02L446.11 159.99C445.88 159.84 445.8 159.54 445.95 159.3C446.1 159.07 446.41 158.99 446.64 159.14C446.63 159.18 446.64 159.18 446.65 159.19Z" fill="#2647A3"/>
<path d="M448.13 157.3C448.13 157.3 448.2 157.31 448.33 157.33C448.44 157.35 448.62 157.37 448.84 157.39C449.27 157.43 449.85 157.46 450.43 157.42C450.72 157.4 451.01 157.39 451.28 157.34C451.55 157.29 451.81 157.28 452.02 157.21C452.45 157.1 452.73 157.03 452.73 157.03H452.75C452.83 157.01 452.91 157.06 452.93 157.14C452.95 157.21 452.91 157.29 452.84 157.31C452.84 157.31 452.56 157.43 452.13 157.6C451.92 157.7 451.66 157.75 451.38 157.85C451.1 157.94 450.8 158 450.5 158.07C449.89 158.2 449.28 158.26 448.81 158.28C448.58 158.29 448.38 158.3 448.23 158.29C448.09 158.29 448.02 158.29 448.02 158.29C447.74 158.28 447.52 158.05 447.53 157.78C447.54 157.5 447.76 157.28 448.04 157.29C448.06 157.29 448.09 157.29 448.11 157.3H448.13Z" fill="#2647A3"/>
<path d="M466.3 183.31C466.3 183.31 455.02 190.58 449.58 196.71C449.58 196.71 445.6 202.61 443.61 207.81C444.45 211.41 445.37 211.87 445.37 211.87C445.37 211.87 448.13 239.43 449.27 256.04C446.28 264.92 442.3 274.03 442.3 274.03C442.3 274.03 447.43 281.23 464.81 284.36C482.19 287.5 497.96 282.75 497.96 282.75C497.96 282.75 497.81 278.23 496.89 273.79C496.66 259.47 492.27 223.72 484.21 203.51C478.29 193.71 468.85 187.28 468.85 187.28C467.87 185.62 466.3 183.31 466.3 183.31Z" fill="#E55151"/>
<path d="M468.85 187.29C468.85 187.29 452.29 195.31 444.06 209.42" stroke="#2647A3" stroke-width="0.5" stroke-linecap="round" stroke-linejoin="round"/>
<path d="M454.56 197.05C454.56 197.05 460.33 208.32 463.9 222.81C467.47 237.3 467.88 253.23 467.88 253.23C467.88 253.23 464.72 270.77 458.18 282.82" stroke="#2647A3" stroke-width="0.5" stroke-linecap="round" stroke-linejoin="round"/>
<path d="M448.96 255.65C448.96 255.65 449.15 255.5 449.49 255.25C449.82 254.99 450.32 254.64 450.91 254.22C451.51 253.8 452.2 253.3 452.95 252.79C453.72 252.3 454.53 251.78 455.35 251.26C455.76 251 456.17 250.74 456.57 250.48C456.96 250.21 457.39 250.01 457.78 249.78C458.57 249.34 459.32 248.94 459.96 248.59C461.23 247.89 462.08 247.43 462.08 247.43C462.14 247.4 462.21 247.42 462.24 247.48C462.27 247.53 462.25 247.6 462.2 247.63H462.19C462.19 247.63 461.37 248.13 460.14 248.89C459.52 249.27 458.81 249.71 458.04 250.18C457.66 250.42 457.25 250.64 456.87 250.93C456.48 251.2 456.09 251.48 455.7 251.76C454.92 252.32 454.13 252.87 453.4 253.39C452.68 253.93 452.03 254.46 451.46 254.9C450.9 255.34 450.42 255.71 450.1 255.99C449.78 256.26 449.59 256.42 449.59 256.42C449.38 256.6 449.06 256.58 448.88 256.37C448.7 256.16 448.73 255.84 448.93 255.66C448.95 255.66 448.96 255.65 448.96 255.65Z" fill="#2647A3"/>
<path d="M496.9 273.8C496.9 273.8 493.38 272.65 487.33 272.19Z" fill="#E55151"/>
<path d="M334 290.22C340.25 292.1 345.28 291.81 347.12 285.68C348.96 279.56 342.47 277.81 344.61 270.67C346.63 263.97 351.84 260.95 360.77 263.64C369.7 266.32 372.39 271.72 370.37 278.42C368.22 285.56 361.84 283.44 360 289.56C358.15 295.68 362.19 298.7 368.43 300.58L388.88 306.72C392.26 307.74 395.83 305.82 396.85 302.44L420.17 224.92C421.19 221.54 419.27 217.97 415.89 216.96L395.4 210.79C389.15 208.91 385.13 205.89 386.97 199.77C388.81 193.65 395.19 195.78 397.34 188.63C399.35 181.94 396.66 176.54 387.74 173.85C378.81 171.17 373.6 174.18 371.58 180.88C369.43 188.02 375.93 189.77 374.09 195.89C372.25 202.01 367.22 202.31 360.97 200.43L338.37 193.63C334.99 192.61 331.42 194.53 330.41 197.91L324.53 217.43C322.65 223.68 322.94 228.71 329.07 230.55C335.19 232.39 336.94 225.89 344.08 228.04C350.78 230.05 353.79 235.27 351.11 244.2C348.42 253.13 343.03 255.81 336.33 253.8C329.19 251.65 331.32 245.27 325.19 243.43C319.07 241.59 316.05 245.61 314.17 251.86L307.08 275.42C306.06 278.8 307.98 282.37 311.36 283.38L334 290.22Z" fill="white" stroke="#2647A3" stroke-linecap="round" stroke-linejoin="round"/>
<path d="M377.22 256.29C378.87 254.8 380.4 252.21 380.77 251.72C381.13 251.24 381.38 250.75 383.16 249.88C384.2 249.38 385.76 248.39 386.87 247.63C386.61 247.7 382.49 248.9 381.48 249.22C380.43 249.55 378.49 250.6 376.25 251.01C374.01 251.41 373.1 250.01 373.64 249.81C374.51 249.5 376.56 248.66 378.23 247.69C379.36 247.05 379.85 246.6 381.22 246.09C381.76 245.89 382.79 245.5 383.84 245.1C383.84 245.1 382.08 244.87 381.04 244.89C380.51 244.9 379.24 245.41 377.19 245.81C375.14 246.22 374.3 245.89 373.89 244.44C376.22 244.16 380.27 242.21 380.73 242.21C381.2 242.21 383.41 241.86 384.92 241.71C386.43 241.55 388.21 241.27 388.53 241.46C388.76 241.59 392.93 244.33 400.05 248.23C411.61 248.23 433.05 238.81 439.15 237.89L455.33 211.03L470.69 223.83C462.69 233.69 447.88 250.32 446.61 251.08C445.32 251.84 407.97 255.81 401.56 256.31C398.19 257.84 395.74 257.44 393.99 256.4C392.23 255.35 389.19 253.18 389.19 253.18C389.19 253.18 386.62 254.45 386.26 254.99C385.89 255.53 385.87 256.14 385.26 257.7C384.65 259.26 382.75 259.54 382.75 259.54C382.75 259.54 383.14 257.14 383.28 256.69C383.4 256.24 383.56 255 384.2 254.19C384.54 253.75 385.43 252.49 386.15 251.42C386.03 251.47 385 251.85 383.9 252.62C383.13 253.17 383.03 253.91 381.85 255.33C380.66 256.75 378.68 257.01 377.22 256.29Z" fill="white"/>
<path d="M453.11 244.25C458.43 238.34 465.82 229.83 470.69 223.83L455.33 211.03L439.81 236.79C443.15 239.12 447.84 242.04 453.11 244.25Z" fill="#D4E7F7"/>
<path d="M387.27 243.79C387.27 243.79 385.52 244.46 383.84 245.09C382.79 245.49 381.76 245.88 381.22 246.08C379.85 246.59 379.36 247.05 378.23 247.68C376.55 248.65 374.51 249.49 373.64 249.8C373.1 250 374.01 251.4 376.25 251C378.49 250.6 380.43 249.54 381.48 249.21C382.49 248.89 386.61 247.69 386.87 247.62" stroke="#2647A3" stroke-linecap="round" stroke-linejoin="round"/>
<path d="M388.27 246.67C388.27 246.67 387.69 247.07 386.89 247.62H386.88C385.76 248.38 384.21 249.37 383.17 249.87C381.39 250.74 381.13 251.23 380.78 251.71C380.41 252.2 378.88 254.79 377.23 256.28C378.69 257 380.67 256.74 381.85 255.31C383.03 253.89 383.13 253.15 383.9 252.6C385 251.83 386.03 251.45 386.15 251.4C386.16 251.4 386.16 251.4 386.16 251.4" stroke="#2647A3" stroke-linecap="round" stroke-linejoin="round"/>
<path d="M387.27 249.76C387.27 249.76 386.75 250.52 386.13 251.41C385.41 252.48 384.53 253.74 384.18 254.18C383.54 254.99 383.38 256.22 383.26 256.68C383.13 257.13 382.73 259.53 382.73 259.53C382.73 259.53 384.63 259.25 385.24 257.69C385.85 256.13 385.88 255.52 386.24 254.98C386.6 254.44 389.17 253.17 389.17 253.17C389.17 253.17 392.21 255.34 393.97 256.39C395.72 257.43 398.17 257.84 401.54 256.3C407.95 255.8 445.31 251.83 446.59 251.07C447.87 250.31 462.67 233.68 470.67 223.82L455.31 211.02L439.13 237.88C433.03 238.8 411.59 248.22 400.03 248.22C392.91 244.31 388.75 241.58 388.51 241.45C388.19 241.25 386.4 241.54 384.9 241.7C383.39 241.85 381.18 242.2 380.71 242.2C380.26 242.2 376.2 244.15 373.87 244.43C374.27 245.88 375.12 246.21 377.17 245.8C379.22 245.4 380.49 244.9 381.02 244.88C382.06 244.86 383.82 245.09 383.82 245.09" stroke="#2647A3" stroke-linecap="round" stroke-linejoin="round"/>
<path d="M470.14 200.46C470.14 200.46 462.3 200.65 457.48 203.52C450.76 211.61 442.01 227.82 442.01 227.82C442.01 227.82 450.94 237.01 458.59 241.29C458.59 241.29 469.61 231.59 476.76 224.04L470.14 200.46Z" fill="#E55151"/>
<path d="M468.28 231.74L476.65 223.92C476.71 223.86 476.81 223.86 476.87 223.93C476.93 223.99 476.93 224.09 476.87 224.15L468.98 232.45C468.79 232.65 468.48 232.66 468.27 232.47C468.07 232.28 468.06 231.97 468.25 231.76C468.26 231.76 468.27 231.75 468.28 231.74Z" fill="#2647A3"/>
<path d="M468.5 231.61L479.66 229.03C479.74 229.01 479.83 229.06 479.85 229.15C479.87 229.23 479.82 229.32 479.74 229.34L468.75 232.58C468.49 232.66 468.21 232.51 468.13 232.25C468.05 231.99 468.2 231.71 468.46 231.62C468.48 231.62 468.49 231.62 468.5 231.61Z" fill="#2647A3"/>
<path d="M457.48 203.51C450.76 211.6 442.01 227.81 442.01 227.81C442.01 227.81 450.94 237 458.59 241.28C458.59 241.28 463.34 237.1 468.63 232.09" stroke="#2647A3" stroke-linecap="round" stroke-linejoin="round"/>
<path d="M470.15 200.65C470.15 200.65 469.33 200.69 468.12 200.84C467.51 200.9 466.81 201.02 466.05 201.14C465.3 201.26 464.51 201.46 463.71 201.62C463.32 201.73 462.93 201.84 462.54 201.95C462.16 202.07 461.77 202.15 461.42 202.28C460.71 202.55 460.05 202.79 459.5 203.02C458.45 203.57 457.74 203.94 457.74 203.94L457.67 203.98C457.43 204.11 457.12 204.02 456.99 203.77C456.86 203.53 456.96 203.22 457.2 203.1C457.21 203.1 457.21 203.09 457.22 203.09C457.22 203.09 457.99 202.73 459.14 202.19C459.73 201.97 460.43 201.76 461.18 201.51C461.55 201.39 461.95 201.32 462.35 201.22C462.75 201.13 463.15 201.04 463.56 200.94C464.38 200.81 465.19 200.65 465.96 200.57C466.73 200.48 467.45 200.4 468.07 200.36C469.3 200.26 470.13 200.26 470.13 200.26C470.24 200.26 470.32 200.35 470.32 200.45C470.33 200.56 470.25 200.64 470.15 200.65Z" fill="#2647A3"/>
<path d="M181.36 113C180.99 113.52 176.72 118.38 176.03 118.92C175.32 119.46 169.49 122.08 168.33 123.54C167.17 125 154.43 151.37 150.86 156.2C147.28 161.04 144.39 165.09 141.23 166.13C139.55 166.69 111.76 162.47 111.76 162.47L112.93 144.35L135.5 152.22C135.5 152.22 139.77 144.84 143.98 139.66C148.19 134.49 161.01 122.07 162.6 117.11C164.2 112.15 165.06 109.76 165.52 109.06C166 108.34 168.15 106.53 168.86 105.38C169.58 104.22 170.04 102.97 170.36 103.11C171.29 103.5 172.3 104.91 171.19 107.45C172.95 105.94 174.98 104.19 175.53 103.75C176.55 102.92 179.44 100.29 180.15 99.6201C180.85 98.9601 181.87 98.3101 182.09 98.4401C182.27 98.5401 182.28 99.7901 181.66 101.09H181.67C182.38 99.9601 183.9 100.21 184.01 100.32C184.1 100.39 183.84 101.49 183.41 102.54C183.41 102.54 184.33 104.43 184.18 104.85C184.04 105.26 183.31 107.03 183.09 107.52C183.01 107.7 182.76 108.08 182.43 108.54C182.43 108.54 182.31 110.38 182.3 110.62C182.27 110.85 181.73 112.48 181.36 113Z" fill="#D4E7F7"/>
<path d="M168.35 109.89C168.35 109.89 169.66 108.76 171.17 107.45C172.93 105.94 174.96 104.19 175.51 103.75C176.53 102.92 179.42 100.29 180.13 99.6201C180.83 98.9601 181.85 98.3101 182.07 98.4401C182.25 98.5401 182.26 99.7901 181.64 101.09C181.47 101.47 181.24 101.86 180.93 102.22C179.62 103.82 178.28 105.91 177.77 106.49C177.27 107.07 175.88 108.29 175.07 110.08" stroke="#2647A3" stroke-linecap="round" stroke-linejoin="round"/>
<path d="M177.35 112.39C177.35 112.39 179.08 108.92 180.23 107.75C181.37 106.56 182.45 104.48 183.07 103.26C183.19 103.03 183.29 102.79 183.4 102.54C183.83 101.49 184.08 100.39 184 100.32C183.88 100.21 182.37 99.95 181.66 101.09" stroke="#2647A3" stroke-linecap="round" stroke-linejoin="round"/>
<path d="M179.01 113.66C179.01 113.66 179.88 111.97 180.65 110.93C181.13 110.28 181.88 109.31 182.42 108.55C182.74 108.09 183 107.71 183.08 107.53C183.3 107.05 184.03 105.27 184.17 104.86C184.32 104.44 183.4 102.55 183.4 102.55" stroke="#2647A3" stroke-linecap="round" stroke-linejoin="round"/>
<path d="M182.42 108.54C182.42 108.54 182.3 110.38 182.29 110.62C182.27 110.86 181.73 112.48 181.36 113C180.99 113.52 176.72 118.38 176.03 118.92C175.32 119.46 169.49 122.08 168.33 123.54C167.17 125 154.43 151.37 150.86 156.2C147.28 161.04 144.39 165.09 141.23 166.13C139.55 166.69 111.76 162.47 111.76 162.47L112.93 144.35L135.5 152.22C135.5 152.22 139.77 144.84 143.98 139.66C148.19 134.49 161.01 122.07 162.6 117.11C164.2 112.15 165.06 109.76 165.52 109.06C166 108.34 168.15 106.53 168.86 105.38C169.58 104.22 170.04 102.97 170.36 103.11C171.29 103.5 172.3 104.91 171.19 107.45" stroke="#2647A3" stroke-linecap="round" stroke-linejoin="round"/>
<path d="M110.43 140.1C105.88 140.28 100.92 140.76 100.92 140.76L99.76 158.8C104.89 161.49 109.54 164.12 116.49 166.13C118.11 161.88 123.9 146.97 123.9 146.97C123.9 146.97 117.35 143.55 110.43 140.1Z" fill="#A53F66"/>
<path d="M110.06 164.42C110.06 164.42 107.43 163.13 104.8 161.84C102.23 160.42 99.66 159 99.66 159C99.56 158.94 99.52 158.81 99.58 158.71C99.64 158.61 99.76 158.57 99.87 158.62C99.87 158.62 102.49 159.91 105.11 161.19C107.8 162.35 110.49 163.52 110.49 163.52C110.74 163.63 110.86 163.92 110.76 164.18C110.65 164.43 110.36 164.55 110.1 164.45C110.08 164.43 110.07 164.42 110.06 164.42Z" fill="#2647A3"/>
<path d="M110.26 164.47C110.26 164.47 108.18 164.35 106.1 164.23C104.02 164.01 101.93 163.79 101.93 163.79C101.81 163.78 101.73 163.67 101.74 163.55C101.75 163.44 101.85 163.35 101.96 163.36C101.96 163.36 104.03 163.44 106.11 163.51C108.19 163.49 110.28 163.47 110.28 163.47C110.56 163.47 110.78 163.68 110.79 163.96C110.79 164.24 110.57 164.46 110.3 164.47C110.28 164.47 110.27 164.47 110.26 164.47Z" fill="#2647A3"/>
<path d="M108.94 140.17C109.44 140.14 109.93 140.12 110.43 140.1C117.35 143.55 123.89 146.97 123.89 146.97C123.89 146.97 118.1 161.88 116.48 166.13C114.19 165.47 112.15 164.74 110.26 163.96" stroke="#2647A3" stroke-linecap="round" stroke-linejoin="round"/>
<path d="M100.9 140.45L108.91 139.67C109.19 139.64 109.43 139.84 109.46 140.12C109.49 140.4 109.29 140.64 109.01 140.67C109 140.67 108.99 140.67 108.98 140.67L100.94 141.08C100.77 141.09 100.62 140.96 100.61 140.78C100.6 140.61 100.73 140.47 100.9 140.45Z" fill="#2647A3"/>
<path d="M138.61 78L169.97 152.63C171.34 155.89 175.09 157.41 178.34 156.05L198.07 147.76C204.08 145.23 209.12 145 211.59 150.89C214.07 156.78 207.79 159.2 210.68 166.08C213.39 172.52 218.9 174.98 227.49 171.36C236.09 167.75 238.19 162.1 235.48 155.65C232.59 148.78 226.47 151.57 223.99 145.67C221.51 139.78 225.2 136.35 231.22 133.82L252.98 124.68C256.23 123.31 257.77 119.56 256.39 116.31L248.49 97.51C245.96 91.49 242.53 87.81 236.64 90.28C230.75 92.76 233.54 98.88 226.66 101.77C220.21 104.48 214.56 102.38 210.95 93.78C207.34 85.19 209.79 79.68 216.23 76.97C223.11 74.08 225.53 80.36 231.42 77.88C237.31 75.4 237.08 70.38 234.55 64.36L225.02 41.68C223.65 38.43 219.9 36.9 216.65 38.27L142.02 69.63C138.77 70.99 137.24 74.74 138.61 78Z" fill="white" stroke="#2647A3" stroke-linecap="round" stroke-linejoin="round"/>
<path d="M116.54 351.36L114.97 388.22L102.51 389.61L101.81 351.36H116.54Z" fill="white" stroke="#213D8C" stroke-linecap="round" stroke-linejoin="round"/>
<path d="M143.76 399.43H100.52V402.66H143.76V399.43Z" fill="#E1EDF7" stroke="#213D8C" stroke-linecap="round" stroke-linejoin="round"/>
<path d="M133.34 393.35C133.34 393.35 133.17 391.09 131.42 390.18C129.66 389.27 119.19 383.38 117.83 382.59C116.47 381.8 115.85 380.72 114.71 380.95C113.58 381.18 111.43 384.01 114.09 386.11C116.75 388.21 131.81 395.4 131.81 395.4L133.34 393.35Z" fill="#A53F66"/>
<path d="M129.84 395.37C130.24 394.07 130.47 393.49 128.94 392.24C127.41 390.99 118.91 387.03 116.93 385.73C114.95 384.43 114.04 384.37 111.61 386.01C109.17 387.65 107.57 387.23 104.85 387.62C102.13 388.02 101.85 387.45 101.28 388.98C100.71 390.51 100.52 396.2 100.52 399.43H131.41L129.84 395.37Z" fill="white" stroke="#213D8C" stroke-linecap="round" stroke-linejoin="round"/>
<path d="M143.76 399.43C143.76 399.43 143.53 396.97 141.44 395.72C139.34 394.47 134.98 392.94 133.4 392.32C131.82 391.7 129.27 395.1 128.53 399.43H143.76V399.43Z" fill="white" stroke="#213D8C" stroke-linecap="round" stroke-linejoin="round"/>
<path d="M125.3 391.76C124.97 392.29 125.13 392.99 125.67 393.32C126.2 393.65 126.9 393.49 127.23 392.96L129.81 388.8C130.14 388.27 129.98 387.57 129.44 387.24C128.91 386.91 128.21 387.08 127.88 387.61L125.3 391.76Z" fill="white" stroke="#213D8C" stroke-linecap="round" stroke-linejoin="round"/>
<path d="M120.46 388.85C120.13 389.38 120.29 390.08 120.83 390.41C121.36 390.74 122.06 390.58 122.38 390.04L124.96 385.89C125.29 385.35 125.13 384.66 124.6 384.33C124.06 384 123.37 384.16 123.04 384.7L120.46 388.85Z" fill="white" stroke="#213D8C" stroke-linecap="round" stroke-linejoin="round"/>
<path d="M115.71 386.55C115.41 387.1 115.61 387.79 116.17 388.08C116.72 388.38 117.41 388.18 117.7 387.63L120.04 383.33C120.34 382.78 120.13 382.09 119.59 381.79C119.04 381.49 118.35 381.69 118.05 382.24L115.71 386.55Z" fill="white" stroke="#213D8C" stroke-linecap="round" stroke-linejoin="round"/>
<path d="M63.26 345.45L49.07 383.39L38.91 376.07L50.46 339.47L63.26 345.45Z" fill="white" stroke="#213D8C" stroke-linecap="round" stroke-linejoin="round"/>
<path d="M59.25 399.53C59.25 399.53 60.64 397.74 59.95 395.89C59.26 394.04 55.44 382.64 54.97 381.14C54.5 379.64 54.76 378.42 53.76 377.83C52.77 377.24 49.27 377.9 49.84 381.23C50.41 384.57 56.75 400.01 56.75 400.01L59.25 399.53Z" fill="#A53F66"/>
<path d="M55.3 398.68C56.47 397.98 57.03 397.71 56.73 395.76C56.43 393.81 52.79 385.17 52.2 382.87C51.61 380.57 50.97 379.92 48.07 379.51C45.16 379.09 44.26 377.7 41.98 376.17C39.7 374.64 39.87 374.03 38.42 374.78C36.98 375.53 33.01 379.62 30.84 382.01L50.76 401.34L55.3 398.68Z" fill="white" stroke="#213D8C" stroke-linecap="round" stroke-linejoin="round"/>
<path d="M68.12 399.52C68.12 399.52 67.89 397.06 65.8 395.81C63.7 394.56 60.65 393.23 59.07 392.61C57.48 391.99 54.55 395.21 54.21 399.52H68.12Z" fill="white" stroke="#213D8C" stroke-linecap="round" stroke-linejoin="round"/>
<path d="M52.91 388.19C52.31 388.36 51.96 388.99 52.14 389.59C52.31 390.19 52.94 390.54 53.54 390.36L58.24 389.01C58.84 388.84 59.19 388.21 59.02 387.61C58.84 387.01 58.22 386.66 57.62 386.83L52.91 388.19Z" fill="white" stroke="#213D8C" stroke-linecap="round" stroke-linejoin="round"/>
<path d="M50.74 382.84C50.15 383.05 49.84 383.69 50.05 384.28C50.25 384.87 50.9 385.18 51.49 384.97L56.11 383.36C56.7 383.15 57.01 382.5 56.8 381.92C56.59 381.33 55.95 381.02 55.36 381.22L50.74 382.84Z" fill="white" stroke="#213D8C" stroke-linecap="round" stroke-linejoin="round"/>
<path d="M50.08 399.43L30.83 382.01L28.67 384.41L48.83 402.66H68.12V399.43H50.08Z" fill="#E1EDF7" stroke="#213D8C" stroke-linecap="round" stroke-linejoin="round"/>
<path d="M85.95 207.41L82.85 224.05C82.66 230.35 83.53 244.07 83.96 246.11C84.39 248.15 96.1 293.43 96.58 299.22C97.06 305.01 99.81 354.79 99.81 354.79C99.81 354.79 112.02 357.9 118.28 357.21C119.69 317.42 123.22 286.49 124.08 275.01C124.94 263.54 124.21 226.85 124.16 225.87C124.11 224.89 116.91 200.14 116.91 200.14L85.95 207.41Z" fill="#EDF7FF" stroke="#2647A3" stroke-linecap="round" stroke-linejoin="round"/>
<path d="M96.48 205.82C96.48 205.82 99.53 232.68 100.81 241.9C102.09 251.12 105.97 287.43 106.02 291.96C106.07 296.49 106.96 356.3 106.96 356.3" stroke="#2647A3" stroke-width="0.5" stroke-linecap="round" stroke-linejoin="round"/>
<path d="M99.63 351.36C99.63 351.36 109.38 354.07 118.4 354.24" stroke="#2647A3" stroke-width="0.5" stroke-linecap="round" stroke-linejoin="round"/>
<path d="M103.4 204.36C103.4 204.36 104.64 221.27 104.37 224.27C103.07 230.82 100.74 241.4 100.74 241.4" stroke="#2647A3" stroke-width="0.5" stroke-linecap="round" stroke-linejoin="round"/>
<path d="M85.95 199.84L83.07 213.62C80.42 219.34 75.82 232.3 75.42 234.34C75.01 236.38 67.97 282.62 66.13 288.13C64.29 293.65 47.24 340.5 47.24 340.5C47.24 340.5 57.24 348.16 63.26 349.99C80.21 313.96 95.62 286.91 100.93 276.7C106.24 266.49 123.82 226.79 124.16 225.87C124.5 224.95 123.79 205.05 123.79 205.05L85.95 199.84Z" fill="white" stroke="#2647A3" stroke-linecap="round" stroke-linejoin="round"/>
<path d="M102.77 202.23C102.77 202.23 95.01 228.12 92.56 237.1C90.11 246.08 79.39 280.99 77.66 285.18C75.93 289.37 53.22 344.71 53.22 344.71" stroke="#2647A3" stroke-width="0.5" stroke-linecap="round" stroke-linejoin="round"/>
<path d="M48.41 337.28C48.41 337.28 56.31 343.61 64.53 347.31" stroke="#2647A3" stroke-width="0.5" stroke-linecap="round" stroke-linejoin="round"/>
<path d="M109.71 203.62C109.71 203.62 104.2 219.65 102.77 222.3C98.99 227.81 92.69 236.62 92.69 236.62" stroke="#2647A3" stroke-width="0.5" stroke-linecap="round" stroke-linejoin="round"/>
<path d="M110.12 117.98C110.12 117.98 107.11 121.07 107.11 126.3C107.11 130.35 107.57 138.19 107.57 138.19L89.4 130.18L94.5 111.04L110.12 117.98Z" fill="white"/>
<path d="M94.5 111.04L92.64 118.01C95.43 121.34 100.49 126.6 107.19 130.29C107.14 128.83 107.1 127.42 107.1 126.3C107.1 121.08 110.11 117.98 110.11 117.98L94.5 111.04Z" fill="#D4E7F7"/>
<path d="M110.12 117.98C110.12 117.98 107.11 121.07 107.11 126.3C107.11 130.35 107.57 138.19 107.57 138.19L89.4 130.18L94.5 111.04L110.12 117.98Z" stroke="#2647A3" stroke-linecap="round" stroke-linejoin="round"/>
<path d="M86.57 196.57L85.95 199.85C95.75 205.13 117.26 206.97 124.16 205.97L123.31 200.07L86.57 196.57Z" fill="white" stroke="#2647A3" stroke-linecap="round" stroke-linejoin="round"/>
<path d="M119.33 200.64C119.33 200.64 119.66 204.49 119.71 205.23C119.76 205.97 119.89 207.4 120.88 207.4C121.88 207.4 124.15 206.99 124.84 206.86L123.97 199.82L119.33 200.64Z" fill="white" stroke="#2647A3" stroke-linecap="round" stroke-linejoin="round"/>
<path d="M112.9 138.19C112.9 138.19 125.91 155.98 127.06 158.2C128.28 165.7 124.84 178.41 123.92 181.55C124.92 187.9 127.32 197.4 127.32 197.4C127.32 197.4 125.6 200.54 123.84 201.76C109.45 203.9 89.93 198.09 86.79 196.86C85.34 195.02 84.42 193.19 84.49 192.73C84.57 192.27 86.63 189.44 86.63 188.6C86.63 187.76 84.84 174.1 83.16 165.96C80.27 161.04 78.66 155.22 80.58 148.41C82.49 141.6 91.76 131.72 91.76 131.72L112.9 138.19Z" fill="#A53F66"/>
<path d="M106.16 135.61C106.16 135.61 105.93 145.8 106.16 147.02C106.39 148.24 108.69 193.03 108.69 193.95C108.69 194.87 106.07 201.4 106.07 201.4" stroke="#2647A3" stroke-width="0.5" stroke-linecap="round" stroke-linejoin="round"/>
<path d="M89.78 126.96C89.78 126.96 98.74 129.41 101.38 130.29C104.02 131.17 114.43 137.07 114.43 137.07L111.44 147.02C111.44 147.02 97.71 136.38 96.77 135.61C95.83 134.84 87.33 131.86 87.33 131.86L89.78 126.96Z" fill="#A53F66"/>
<path d="M101.84 130.47C101.68 130.4 101.51 130.34 101.38 130.3C98.74 129.42 89.78 126.97 89.78 126.97L87.33 131.87C87.33 131.87 95.8 134.85 96.76 135.62L101.84 130.47Z" fill="#8E395B"/>
<path d="M89.78 126.96C89.78 126.96 98.74 129.41 101.38 130.29C104.02 131.17 114.43 137.07 114.43 137.07L111.44 147.02C111.44 147.02 97.71 136.38 96.77 135.61C95.83 134.84 87.33 131.86 87.33 131.86L89.78 126.96Z" stroke="#2647A3" stroke-linecap="round" stroke-linejoin="round"/>
<path d="M92.13 113.14C92.16 113.16 92.17 113.17 92.2 113.17C92.76 113.4 93.34 113.56 93.94 113.62C100.15 122.34 113.28 121.67 115.09 121.23C116.9 120.78 116.44 119.32 116.26 117.37C116.1 115.4 117.42 115.24 117.86 114.45C118.29 113.65 118.03 111.88 118.03 111.88C119.69 111.65 120.37 110.67 120.37 110.67C120.37 110.67 120.27 110.29 120.1 109.58C119.92 108.87 120.41 108.19 121.01 108.07C121.61 107.94 122.94 107.06 123.17 106.1C123.41 105.14 122.75 104.87 120.38 102.46C118.01 100.04 120.02 99.4301 117.13 90.0901C114.23 80.7501 105.53 76.7101 97.67 77.5901C88.28 78.6501 81.89 83.6001 81.05 94.5901C80.26 105.03 87.16 111.5 92.13 113.14Z" fill="white"/>
<path d="M113.9 99.6401C113.92 100.63 114.45 101.42 115.1 101.41C115.75 101.4 116.26 100.59 116.25 99.6101C116.24 98.6201 115.7 97.8301 115.05 97.8401C114.4 97.8401 113.89 98.6501 113.9 99.6401Z" fill="#2647A3"/>
<path d="M93.94 113.62C100.15 122.34 113.28 121.67 115.09 121.23C116.9 120.78 116.44 119.32 116.26 117.37C116.1 115.4 117.42 115.24 117.86 114.45C118.29 113.65 118.03 111.88 118.03 111.88C119.69 111.65 120.37 110.67 120.37 110.67C120.37 110.67 120.27 110.29 120.1 109.58C119.92 108.87 120.41 108.19 121.01 108.07C121.61 107.94 122.94 107.06 123.17 106.1C123.41 105.14 122.75 104.87 120.38 102.46C118.01 100.04 120.02 99.4301 117.13 90.0901C114.23 80.7501 105.53 76.7101 97.67 77.5901C88.28 78.6501 81.89 83.6001 81.05 94.5901C80.25 105.03 87.15 111.51 92.12 113.14" stroke="#2647A3" stroke-linecap="round" stroke-linejoin="round"/>
<path d="M117.95 112.38C117.95 112.38 117.84 112.36 117.66 112.31C117.47 112.27 117.21 112.19 116.91 112.1C116.3 111.91 115.51 111.61 114.76 111.22C114.39 111.01 114.01 110.84 113.69 110.6C113.37 110.37 113.04 110.2 112.81 109.98C112.33 109.57 112.01 109.3 112.01 109.3C111.92 109.22 111.91 109.09 111.98 109C112.05 108.92 112.18 108.9 112.27 108.96L112.29 108.98C112.29 108.98 112.62 109.21 113.11 109.56C113.34 109.75 113.67 109.89 114 110.08C114.32 110.28 114.7 110.41 115.06 110.58C115.8 110.89 116.57 111.11 117.15 111.24C117.44 111.3 117.68 111.35 117.85 111.37C118.02 111.39 118.12 111.41 118.12 111.41H118.14C118.41 111.45 118.6 111.7 118.57 111.97C118.53 112.24 118.28 112.43 118 112.4C117.97 112.38 117.96 112.38 117.95 112.38Z" fill="#2647A3"/>
<path d="M107.77 86.45C106.55 91.3 102.96 101.15 93.54 104.41C93.52 104.24 93.48 104.07 93.43 103.91C93.32 103.53 93.15 103.18 92.93 102.86C91.58 100.9 88.51 100.08 87.17 102.55C85.28 106.01 87.6 112.47 93.94 113.64C94.71 116.68 97.46 128.41 89.8 137.9C82.14 147.39 79.39 158.11 83.17 165.96C74.39 166.68 62.04 159.53 66.22 144.02C70.41 128.5 75.82 125.95 75.21 112.58C74.6 99.2001 73.78 88.55 82.04 83.79C83.64 78.13 93.85 72.3601 107.76 74.5501C117.46 76.0801 122.62 81.59 122.36 86.49C122.13 90.78 118.01 93.29 118.01 93.29C115.07 92.67 110.18 90.62 107.77 86.45Z" fill="#3B4394"/>
<path d="M93.54 104.4C93.52 104.23 93.48 104.06 93.43 103.9C93.32 103.52 93.15 103.17 92.93 102.85C91.58 100.89 88.51 100.07 87.17 102.54C85.28 106 87.6 112.46 93.94 113.63C94.71 116.67 97.46 128.4 89.8 137.89C82.14 147.38 79.39 158.1 83.17 165.95C74.39 166.67 62.04 159.52 66.22 144.01C70.41 128.49 75.82 125.94 75.21 112.57C74.6 99.19 73.78 88.54 82.04 83.78C83.64 78.12 93.85 72.35 107.76 74.54C117.46 76.07 122.62 81.58 122.36 86.48C122.13 90.77 118.01 93.28 118.01 93.28C115.06 92.66 110.17 90.61 107.76 86.43C107.76 86.42 107.75 86.42 107.75 86.41" stroke="#2647A3" stroke-linecap="round" stroke-linejoin="round"/>
<path d="M108.33 83.6901C108.33 83.6901 108.2 84.7701 107.77 86.4501C106.55 91.3001 102.96 101.15 93.54 104.41" stroke="#2647A3" stroke-linecap="round" stroke-linejoin="round"/>
<path d="M93.06 103.56C93.06 103.56 93.28 103.35 93.58 102.97C93.91 102.61 94.31 102.01 94.82 101.31C95.05 100.94 95.29 100.54 95.55 100.11C95.68 99.9 95.81 99.68 95.95 99.45C96.07 99.21 96.19 98.98 96.31 98.73C96.55 98.24 96.8 97.73 97.06 97.22C97.3 96.7 97.49 96.14 97.7 95.6C97.9 95.05 98.13 94.52 98.31 93.97C98.46 93.42 98.61 92.87 98.76 92.34C98.91 91.81 99.05 91.3 99.18 90.81C99.31 90.32 99.36 89.85 99.44 89.42C99.73 87.68 99.93 86.53 99.93 86.53V86.51C99.95 86.41 100.04 86.35 100.13 86.37C100.22 86.39 100.29 86.47 100.28 86.57C100.28 86.57 100.12 87.75 99.88 89.51C99.81 89.95 99.78 90.43 99.67 90.93C99.55 91.43 99.42 91.95 99.29 92.49C99.16 93.03 99.02 93.59 98.89 94.16C98.73 94.72 98.51 95.28 98.32 95.84C98.12 96.4 97.95 96.97 97.72 97.52C97.48 98.06 97.24 98.58 97.01 99.09C96.89 99.34 96.78 99.6 96.67 99.84C96.54 100.07 96.41 100.31 96.28 100.53C96.03 100.98 95.79 101.4 95.57 101.79C95.06 102.54 94.67 103.17 94.31 103.59C93.98 104.03 93.78 104.23 93.78 104.23L93.76 104.25C93.57 104.45 93.25 104.46 93.05 104.27C92.85 104.08 92.84 103.76 93.03 103.56C93.05 103.57 93.05 103.56 93.06 103.56Z" fill="#2647A3"/>
<path d="M92.46 102.67C92.46 102.67 92.52 102.5 92.64 102.2C92.75 101.91 92.89 101.47 93.05 100.95C93.2 100.42 93.39 99.81 93.55 99.14C93.7 98.47 93.89 97.76 94.01 97.03C94.15 96.31 94.28 95.58 94.35 94.9C94.43 94.22 94.54 93.58 94.56 93.02C94.63 91.92 94.68 91.18 94.68 91.18V91.17C94.69 91.06 94.78 90.98 94.89 90.99C94.99 91 95.07 91.08 95.07 91.19C95.07 91.19 95.06 91.94 95.04 93.06C95.05 93.62 94.98 94.27 94.93 94.97C94.89 95.67 94.8 96.41 94.7 97.15C94.62 97.9 94.47 98.63 94.35 99.32C94.22 100.01 94.06 100.65 93.94 101.2C93.8 101.75 93.68 102.2 93.57 102.52C93.47 102.84 93.41 103.02 93.41 103.02C93.33 103.28 93.04 103.43 92.78 103.35C92.52 103.27 92.37 102.98 92.45 102.72C92.45 102.71 92.46 102.71 92.46 102.7V102.67Z" fill="#2647A3"/>
<path d="M184.08 112.55C183.71 113.14 179.45 118.68 178.74 119.31C178.02 119.95 171.91 123.17 170.75 124.82C169.6 126.47 157.68 155.8 154.16 161.26C150.63 166.72 147.8 171.29 144.46 172.64C142.69 173.36 109.06 170.09 109.06 170.09V150.47L137.31 158.04C137.31 158.04 141.4 149.78 145.59 143.91C149.77 138.04 162.74 123.76 164.11 118.3C165.49 112.84 166.25 110.2 166.71 109.41C167.18 108.6 169.37 106.51 170.06 105.21C170.76 103.91 171.16 102.53 171.52 102.66C172.55 103.02 173.74 104.47 172.72 107.28C174.51 105.53 176.58 103.51 177.14 102.99C178.18 102.02 181.12 98.99 181.83 98.21C182.54 97.45 183.59 96.68 183.84 96.8C184.04 96.9 184.13 98.25 183.56 99.69H183.57C184.26 98.42 185.91 98.59 186.04 98.7C186.14 98.77 185.94 99.97 185.55 101.14C185.55 101.14 186.68 103.11 186.54 103.58C186.42 104.03 185.75 105.99 185.55 106.53C185.48 106.73 185.23 107.16 184.91 107.67C184.91 107.67 184.91 109.67 184.91 109.92C184.91 110.17 184.43 111.96 184.08 112.55Z" fill="white"/>
<path d="M124.08 154.5L109.06 150.48V170.1C109.06 170.1 119.35 171.1 128.85 171.87C127.83 164.34 125.39 157.68 124.08 154.5Z" fill="#D4E7F7"/>
<path d="M169.83 110.1C169.83 110.1 171.16 108.79 172.71 107.27C174.5 105.52 176.57 103.5 177.13 102.98C178.17 102.01 181.11 98.98 181.82 98.2C182.53 97.44 183.58 96.67 183.83 96.79C184.03 96.89 184.12 98.24 183.55 99.68C183.39 100.11 183.17 100.54 182.86 100.95C181.56 102.76 180.26 105.12 179.75 105.78C179.25 106.44 177.84 107.85 177.09 109.83" stroke="#2647A3" stroke-linecap="round" stroke-linejoin="round"/>
<path d="M179.71 112.17C179.71 112.17 181.34 108.31 182.49 106.96C183.64 105.6 184.66 103.29 185.25 101.93C185.36 101.67 185.46 101.4 185.56 101.13C185.95 99.97 186.15 98.77 186.05 98.69C185.92 98.58 184.26 98.41 183.58 99.68" stroke="#2647A3" stroke-linecap="round" stroke-linejoin="round"/>
<path d="M181.59 113.42C181.59 113.42 182.41 111.53 183.17 110.36C183.65 109.62 184.38 108.52 184.91 107.66C185.23 107.15 185.47 106.72 185.55 106.52C185.76 105.98 186.42 104.02 186.54 103.57C186.67 103.1 185.55 101.13 185.55 101.13" stroke="#2647A3" stroke-linecap="round" stroke-linejoin="round"/>
<path d="M184.91 107.66C184.91 107.66 184.91 109.66 184.91 109.91C184.91 110.17 184.43 111.95 184.08 112.54C183.71 113.13 179.45 118.67 178.74 119.3C178.02 119.94 171.91 123.16 170.75 124.81C169.6 126.46 157.68 155.79 154.16 161.25C150.63 166.71 147.8 171.28 144.46 172.63C142.69 173.35 109.06 170.08 109.06 170.08V150.46L137.31 158.03C137.31 158.03 141.4 149.77 145.59 143.9C149.77 138.03 162.74 123.75 164.11 118.29C165.49 112.83 166.25 110.19 166.71 109.4C167.18 108.59 169.37 106.5 170.06 105.2C170.76 103.9 171.16 102.52 171.52 102.65C172.55 103.01 173.74 104.46 172.72 107.27" stroke="#2647A3" stroke-linecap="round" stroke-linejoin="round"/>
<path d="M106.09 146.05C101.2 146.56 95.88 147.43 95.88 147.43V166.97C101.6 169.51 106.8 172.03 114.43 173.71C115.88 169.01 121.09 152.53 121.09 152.53C121.09 152.53 113.79 149.29 106.09 146.05Z" fill="#A53F66"/>
<path d="M107.39 172.27C107.39 172.27 104.46 171.06 101.54 169.86C98.66 168.51 95.79 167.17 95.79 167.17C95.68 167.12 95.63 166.99 95.68 166.88C95.73 166.77 95.85 166.73 95.96 166.77C95.96 166.77 98.87 167.98 101.79 169.19C104.77 170.26 107.74 171.34 107.74 171.34C108 171.43 108.14 171.72 108.05 171.98C107.96 172.24 107.67 172.38 107.41 172.29C107.41 172.28 107.4 172.27 107.39 172.27Z" fill="#2647A3"/>
<path d="M107.59 172.3C107.59 172.3 105.34 172.32 103.08 172.34C100.82 172.25 98.56 172.17 98.56 172.17C98.44 172.17 98.35 172.07 98.35 171.95C98.35 171.83 98.45 171.74 98.56 171.74C98.56 171.74 100.8 171.69 103.05 171.63C105.3 171.47 107.54 171.3 107.54 171.3C107.82 171.28 108.06 171.48 108.08 171.76C108.1 172.04 107.9 172.28 107.62 172.3C107.62 172.3 107.6 172.3 107.59 172.3Z" fill="#2647A3"/>
<path d="M104.49 146.23C105.02 146.17 105.56 146.11 106.09 146.05C113.79 149.29 121.09 152.53 121.09 152.53C121.09 152.53 115.88 169.01 114.43 173.71C111.91 173.16 109.66 172.51 107.57 171.8" stroke="#2647A3" stroke-linecap="round" stroke-linejoin="round"/>
<path d="M95.84 147.12L104.43 145.73C104.7 145.69 104.96 145.87 105 146.14C105.04 146.41 104.86 146.67 104.59 146.71C104.58 146.71 104.57 146.71 104.56 146.71L95.92 147.72C95.75 147.74 95.59 147.62 95.57 147.45C95.55 147.3 95.67 147.15 95.84 147.12Z" fill="#2647A3"/>
<path d="M175.86 194.97H173.12V192.23C173.12 191.35 172.41 190.63 171.52 190.63C170.64 190.63 169.92 191.34 169.92 192.23V194.97H167.18C166.3 194.97 165.59 195.68 165.59 196.56C165.59 197.44 166.3 198.16 167.18 198.16H169.92V200.9C169.92 201.78 170.63 202.5 171.52 202.5C172.4 202.5 173.12 201.78 173.12 200.9V198.16H175.86C176.74 198.16 177.46 197.44 177.46 196.56C177.46 195.68 176.74 194.97 175.86 194.97Z" fill="#BADBF7"/>
<path d="M327.92 76.16H325.18V73.4199C325.18 72.5399 324.47 71.8199 323.58 71.8199C322.7 71.8199 321.98 72.5299 321.98 73.4199V76.16H319.24C318.36 76.16 317.64 76.8799 317.64 77.7599C317.64 78.6399 318.35 79.3599 319.24 79.3599H321.98V82.0999C321.98 82.9799 322.7 83.6899 323.58 83.6899C324.46 83.6899 325.18 82.9699 325.18 82.0999V79.3599H327.92C328.8 79.3599 329.52 78.6499 329.52 77.7599C329.52 76.8799 328.8 76.16 327.92 76.16Z" fill="#FFD373"/>
<path d="M424.38 21.51L422.44 19.57L424.38 17.63C425 17.01 425.01 16 424.38 15.37C423.76 14.75 422.75 14.75 422.12 15.37L420.18 17.3L418.25 15.36C417.63 14.74 416.62 14.74 415.99 15.36C415.37 15.98 415.37 17 415.99 17.62L417.92 19.56L415.98 21.5C415.36 22.12 415.36 23.13 415.98 23.76C416.61 24.38 417.61 24.38 418.24 23.76L420.18 21.82L422.12 23.76C422.74 24.38 423.75 24.38 424.38 23.76C425 23.14 425 22.13 424.38 21.51Z" fill="#FF879F"/>
<path d="M524.01 175.5C524.01 178.48 521.6 180.88 518.63 180.88C515.66 180.88 513.25 178.47 513.25 175.5C513.25 172.53 515.66 170.12 518.63 170.12C521.6 170.12 524.01 172.53 524.01 175.5Z" stroke="#FF879F" stroke-miterlimit="10"/>
<path d="M157.76 342.3C157.76 345.27 155.35 347.68 152.37 347.68C149.4 347.68 146.99 345.27 146.99 342.3C146.99 339.33 149.4 336.92 152.37 336.92C155.35 336.91 157.76 339.32 157.76 342.3Z" stroke="#FF879F" stroke-miterlimit="10"/>
<path d="M144.35 1L149.83 3.79L144.67 7.14L144.35 1Z" stroke="#2E7EFB" stroke-miterlimit="10" stroke-linejoin="round"/>
<path d="M384.54 351.17L390.01 353.96L384.86 357.31L384.54 351.17Z" stroke="#2E7EFB" stroke-miterlimit="10" stroke-linejoin="round"/>
<path d="M42.32 245.14C47.2 245.14 47.2 249.73 52.08 249.73C56.96 249.73 56.96 245.14 61.85 245.14C66.73 245.14 66.73 249.73 71.62 249.73C76.51 249.73 76.51 245.14 81.39 245.14C86.28 245.14 86.28 249.73 91.17 249.73C96.06 249.73 96.06 245.14 100.94 245.14" stroke="#FF879F" stroke-miterlimit="10"/>
<path d="M402.6 111.23C407.48 111.23 407.48 115.82 412.37 115.82C417.25 115.82 417.25 111.23 422.14 111.23C427.02 111.23 427.02 115.82 431.91 115.82C436.79 115.82 436.79 111.23 441.67 111.23C446.56 111.23 446.56 115.82 451.45 115.82C456.33 115.82 456.33 111.23 461.22 111.23" stroke="#2E7EFB" stroke-miterlimit="10" stroke-linecap="round" stroke-linejoin="round"/>
<defs>
<linearGradient id="paint0_linear" x1="273.576" y1="339.204" x2="367.353" y2="339.204" gradientUnits="userSpaceOnUse">
<stop stop-color="#3B4394"/>
<stop offset="0.1071" stop-color="#3B4394"/>
<stop offset="0.1878" stop-color="#6E417E"/>
<stop offset="0.2806" stop-color="#A53F66"/>
<stop offset="0.4694" stop-color="#BF4B4B"/>
<stop offset="0.648" stop-color="#E55151"/>
<stop offset="0.8265" stop-color="#E56829"/>
<stop offset="1" stop-color="#E85D04"/>
</linearGradient>
<linearGradient id="paint1_linear" x1="240.436" y1="169.376" x2="367.353" y2="169.376" gradientUnits="userSpaceOnUse">
<stop stop-color="#3B4394"/>
<stop offset="0.1071" stop-color="#3B4394"/>
<stop offset="0.1878" stop-color="#6E417E"/>
<stop offset="0.2806" stop-color="#A53F66"/>
<stop offset="0.4694" stop-color="#BF4B4B"/>
<stop offset="0.648" stop-color="#E55151"/>
<stop offset="0.8265" stop-color="#E56829"/>
<stop offset="1" stop-color="#E85D04"/>
</linearGradient>
<linearGradient id="paint2_linear" x1="179.897" y1="261.919" x2="306.813" y2="261.919" gradientUnits="userSpaceOnUse">
<stop stop-color="#3B4394"/>
<stop offset="0.1071" stop-color="#3B4394"/>
<stop offset="0.1878" stop-color="#6E417E"/>
<stop offset="0.2806" stop-color="#A53F66"/>
<stop offset="0.4694" stop-color="#BF4B4B"/>
<stop offset="0.648" stop-color="#E55151"/>
<stop offset="0.8265" stop-color="#E56829"/>
<stop offset="1" stop-color="#E85D04"/>
</linearGradient>
</defs>
</svg>
