<?xml version="1.0" encoding="UTF-8" standalone="no" ?>
<!DOCTYPE svg PUBLIC "-//W3C//DTD SVG 1.1//EN" "http://www.w3.org/Graphics/SVG/1.1/DTD/svg11.dtd">
<svg xmlns="http://www.w3.org/2000/svg" xmlns:xlink="http://www.w3.org/1999/xlink" version="1.1" width="200" height="220" viewBox="0 0 100 110" xml:space="preserve">
<desc>Created with Fabric.js 5.3.0</desc>
<defs>
</defs>
<g transform="matrix(1 0 0 1 91.4709770373 85.2215567048)" id="v6tDsRAAKSSuFVpuyFXEH" clip-path="url(#CLIPPATH_73)"  >
<clipPath id="CLIPPATH_73" >
	<rect id="clip0" x="-107.5" y="-80" rx="0" ry="0" width="215" height="160" />
</clipPath>
<path style="stroke: none; stroke-width: 1; stroke-dasharray: none; stroke-linecap: butt; stroke-dashoffset: 0; stroke-linejoin: miter; stroke-miterlimit: 4; fill: rgb(232,93,4); fill-rule: nonzero; opacity: 1;"  transform=" translate(-153.1936531148, -83.8080705552)" d="M 147.087 102.331 C 147.046 102.946 147.282 103.575 147.77 104.037 C 148.633 104.848 149.998 104.806 150.805 103.939 C 155.805 98.568 158.799 91.5604 159.245 84.2171 C 159.69 76.9997 157.643 69.7962 153.479 63.9076 C 152.797 62.9425 151.46 62.7047 150.485 63.3901 C 149.524 64.0755 149.288 65.4182 149.97 66.3974 C 153.618 71.5586 155.331 77.6291 154.955 83.9513 C 154.565 90.3015 151.975 96.358 147.658 101.002 C 147.296 101.365 147.115 101.841 147.087 102.331 Z" stroke-linecap="round" />
</g>
<g transform="matrix(1 0 0 1 8.0837529592 85.2215567048)" id="gl7rjBygVXQSjLiFNRtZL" clip-path="url(#CLIPPATH_74)"  >
<clipPath id="CLIPPATH_74" >
	<rect id="clip0" x="-107.5" y="-80" rx="0" ry="0" width="215" height="160" />
</clipPath>
<path style="stroke: none; stroke-width: 1; stroke-dasharray: none; stroke-linecap: butt; stroke-dashoffset: 0; stroke-linejoin: miter; stroke-miterlimit: 4; fill: rgb(59,67,148); fill-rule: nonzero; opacity: 1;"  transform=" translate(-69.8064290367, -83.8080705552)" d="M 75.9127 102.331 C 75.9544 102.946 75.7177 103.575 75.2303 104.037 C 74.3669 104.848 73.0022 104.806 72.1945 103.939 C 67.1951 98.568 64.2011 91.5604 63.7555 84.2171 C 63.3098 76.9997 65.3569 69.7962 69.5207 63.9076 C 70.2031 62.9425 71.54 62.7047 72.5148 63.3901 C 73.4757 64.0755 73.7124 65.4182 73.0161 66.3974 C 69.3675 71.5586 67.6547 77.6291 68.0307 83.9513 C 68.4206 90.3015 71.0108 96.358 75.3278 101.002 C 75.7038 101.365 75.8848 101.841 75.9127 102.331 Z" stroke-linecap="round" />
</g>
<g transform="matrix(1 0 0 1 49.6173239225 61.6564861496)" id="Rhy9L7bTivSKFNeGwT9RI" clip-path="url(#CLIPPATH_75)"  >
<linearGradient id="SVGID_0" gradientUnits="userSpaceOnUse" gradientTransform="matrix(1 0 0 1 0 0)"  x1="105.508" y1="60.2511" x2="117.178" y2="60.2511">
<stop offset="0%" style="stop-color:rgb(59,67,148);stop-opacity: 1"/>
<stop offset="16.33%" style="stop-color:rgb(97,67,148);stop-opacity: 1"/>
<stop offset="19.31%" style="stop-color:rgb(110,66,139);stop-opacity: 1"/>
<stop offset="32.65%" style="stop-color:rgb(165,63,102);stop-opacity: 1"/>
<stop offset="49.49%" style="stop-color:rgb(191,75,75);stop-opacity: 1"/>
<stop offset="67.35%" style="stop-color:rgb(229,81,81);stop-opacity: 1"/>
<stop offset="82.65%" style="stop-color:rgb(229,104,41);stop-opacity: 1"/>
<stop offset="100%" style="stop-color:rgb(232,93,4);stop-opacity: 1"/>
</linearGradient>
<clipPath id="CLIPPATH_75" >
	<rect id="clip0" x="-107.5" y="-80" rx="0" ry="0" width="215" height="160" />
</clipPath>
<path style="stroke: none; stroke-width: 1; stroke-dasharray: none; stroke-linecap: butt; stroke-dashoffset: 0; stroke-linejoin: miter; stroke-miterlimit: 4; fill: url(#SVGID_0); fill-rule: nonzero; opacity: 1;"  transform=" translate(-111.34, -60.243)" d="M 115.448 56.1168 C 116.604 57.2497 117.175 58.5925 117.175 60.1731 C 117.175 61.8375 116.604 63.2503 115.448 64.3692 C 114.292 65.5022 112.941 66.0617 111.382 66.0617 C 109.766 66.0617 108.388 65.5022 107.232 64.3692 C 106.076 63.2363 105.505 61.8375 105.505 60.1731 C 105.505 58.5925 106.076 57.2497 107.232 56.1168 C 108.388 54.9838 109.766 54.4243 111.382 54.4243 C 112.941 54.4243 114.306 54.9978 115.448 56.1168 Z" stroke-linecap="round" />
</g>
<g transform="matrix(1 0 0 1 49.6180086662 6.9173140794)" id="BxE2eCaMMo_1KeofMXFrY" clip-path="url(#CLIPPATH_76)"  >
<linearGradient id="SVGID_1" gradientUnits="userSpaceOnUse" gradientTransform="matrix(1 0 0 1 0 0)"  x1="90.5803" y1="5.50144" x2="132.105" y2="5.50144">
<stop offset="0%" style="stop-color:rgb(59,67,148);stop-opacity: 1"/>
<stop offset="10.71%" style="stop-color:rgb(59,67,148);stop-opacity: 1"/>
<stop offset="18.78%" style="stop-color:rgb(110,65,126);stop-opacity: 1"/>
<stop offset="28.060000000000002%" style="stop-color:rgb(165,63,102);stop-opacity: 1"/>
<stop offset="46.94%" style="stop-color:rgb(191,75,75);stop-opacity: 1"/>
<stop offset="64.8%" style="stop-color:rgb(229,81,81);stop-opacity: 1"/>
<stop offset="82.65%" style="stop-color:rgb(229,104,41);stop-opacity: 1"/>
<stop offset="100%" style="stop-color:rgb(232,93,4);stop-opacity: 1"/>
</linearGradient>
<clipPath id="CLIPPATH_76" >
	<rect id="clip0" x="-107.5" y="-80" rx="0" ry="0" width="215" height="160" />
</clipPath>
<path style="stroke: none; stroke-width: 1; stroke-dasharray: none; stroke-linecap: butt; stroke-dashoffset: 0; stroke-linejoin: miter; stroke-miterlimit: 4; fill: url(#SVGID_1); fill-rule: nonzero; opacity: 1;"  transform=" translate(-111.3406847437, -5.5038279298)" d="M 92.7211 11.0079 C 92.1083 11.0079 91.4956 10.7422 91.0639 10.2247 C 90.3119 9.3015 90.4512 7.94474 91.3564 7.18942 C 97.0241 2.51769 104.182 -0.0279905 111.507 -0.0000160159 C 118.707 0.0279585 125.739 2.54566 131.309 7.09151 C 132.229 7.84682 132.368 9.20359 131.63 10.1267 C 130.878 11.0499 129.527 11.1898 128.608 10.4345 C 123.72 6.4481 117.801 4.33603 111.493 4.30805 C 105.157 4.28008 98.9738 6.49006 94.0858 10.5184 C 93.682 10.8401 93.1946 11.0079 92.7211 11.0079 Z" stroke-linecap="round" />
</g>
<g transform="matrix(1 0 0 1 49.618472915 60.4044861496)" id="Vk4qk3yYUWFMRX5-GO8r3" clip-path="url(#CLIPPATH_77)"  >
<linearGradient id="SVGID_2" gradientUnits="userSpaceOnUse" gradientTransform="matrix(1 0 0 1 0 0)"  x1="70.6059" y1="58.9938" x2="152.08" y2="58.9938">
<stop offset="0%" style="stop-color:rgb(59,67,148);stop-opacity: 1"/>
<stop offset="10.71%" style="stop-color:rgb(59,67,148);stop-opacity: 1"/>
<stop offset="18.78%" style="stop-color:rgb(110,65,126);stop-opacity: 1"/>
<stop offset="28.060000000000002%" style="stop-color:rgb(165,63,102);stop-opacity: 1"/>
<stop offset="46.94%" style="stop-color:rgb(191,75,75);stop-opacity: 1"/>
<stop offset="64.8%" style="stop-color:rgb(229,81,81);stop-opacity: 1"/>
<stop offset="82.65%" style="stop-color:rgb(229,104,41);stop-opacity: 1"/>
<stop offset="100%" style="stop-color:rgb(232,93,4);stop-opacity: 1"/>
</linearGradient>
<clipPath id="CLIPPATH_77" >
	<rect id="clip0" x="-107.5" y="-80" rx="0" ry="0" width="215" height="160" />
</clipPath>
<path style="stroke: none; stroke-width: 1; stroke-dasharray: none; stroke-linecap: butt; stroke-dashoffset: 0; stroke-linejoin: miter; stroke-miterlimit: 4; fill: url(#SVGID_2); fill-rule: nonzero; opacity: 1;"  transform=" translate(-111.3411489925, -58.991)" d="M 151.279 24.9392 C 140.097 15.8894 126.018 10.896 111.618 10.896 C 96.9545 10.896 82.6667 16.0433 71.3868 25.4008 C 70.4677 26.1561 70.3424 27.5128 71.0944 28.436 C 71.5122 28.9535 72.1249 29.2193 72.7516 29.2193 C 72.8769 29.2193 73.0162 29.2053 73.1415 29.1773 C 73.4896 35.3177 74.6176 41.1504 76.414 46.4795 C 76.3583 62.9984 76.3026 79.4894 76.233 96.0223 C 76.233 101.925 81.3159 107.086 87.109 107.086 C 103.736 107.086 120.364 107.086 137.005 107.086 C 142.52 107.086 146.697 102.093 146.697 95.9943 C 146.697 79.6153 146.878 63.3062 146.878 46.9131 C 146.878 46.9131 146.906 46.8152 146.878 46.9131 C 148.786 41.0944 149.97 35.2338 150.29 28.7997 C 150.792 28.7157 151.251 28.436 151.599 28.0024 C 152.351 27.0652 152.198 25.6805 151.279 24.9392 Z M 142.617 96.0363 C 142.617 99.7709 140.152 102.652 137.005 102.652 C 120.378 102.652 103.75 102.652 87.109 102.652 C 83.7251 102.652 80.5221 99.4352 80.5221 95.9804 C 80.5639 82.6365 80.6196 69.3487 80.6614 56.0048 C 87.7078 68.5933 99.0991 76.7619 111.758 76.7619 C 124.221 76.692 135.39 68.6913 142.617 56.1727 C 142.617 69.4606 142.617 82.7484 142.617 96.0363 Z M 111.702 72.3699 C 92.9718 72.314 77.7231 51.6548 77.3192 26.268 C 87.2761 19.1205 99.308 15.2041 111.604 15.2041 C 123.971 15.2041 136.086 19.1625 146.071 26.3799 C 145.653 52.3961 130.404 72.3 111.702 72.3699 Z" stroke-linecap="round" />
</g>
</svg>